<?xml version="1.0" encoding="UTF-8" standalone="no"?>
<!DOCTYPE svg PUBLIC "-//W3C//DTD SVG 1.1//EN" "http://www.w3.org/Graphics/SVG/1.1/DTD/svg11.dtd">
<svg xml:space="default" width="1400" height="1600" xmlns="http://www.w3.org/2000/svg">
	<title>日本地図</title>
	<defs>
		<style type="text/css"><![CDATA[
			#BG{            fill: lightskyblue; }
			#Hopporyodo{    fill: darkseagreen; }
			#Hokkaido{      fill: darkseagreen; }
			#Aomori{        fill: darkseagreen; }
			#Iwate{         fill: darkseagreen; }
			#Miyagi{        fill: darkseagreen; }
			#Akita{         fill: darkseagreen; }
			#Yamagata{      fill: darkseagreen; }
			#Fukushima{     fill: darkseagreen; }
			#Ibaraki{       fill: darkseagreen; }
			#Tochigi{       fill: darkseagreen; }
			#Gumma{         fill: darkseagreen; }
			#Saitama{       fill: darkseagreen; }
			#Chiba{         fill: darkseagreen; }
			#Tokyo{         fill: darkseagreen; }
			#Kanagawa{      fill: darkseagreen; }
			#Nigata{        fill: darkseagreen; }
			#Toyama{        fill: darkseagreen; }
			#Ishikawa{      fill: darkseagreen; }
			#Fukui{         fill: darkseagreen; }
			#Yamanashi{     fill: darkseagreen; }
			#Nagano{        fill: darkseagreen; }
			#Gifu{          fill: darkseagreen; }
			#Shizuoka{      fill: darkseagreen; }
			#Aichi{         fill: darkseagreen; }
			#Mie{           fill: darkseagreen; }
			#Shiga{         fill: darkseagreen; }
			#Kyoto{         fill: darkseagreen; }
			#Osaka{         fill: darkseagreen; }
			#Hyogo{         fill: darkseagreen; }
			#Nara{          fill: darkseagreen; }
			#Wakayama{      fill: darkseagreen; }
			#Tottori{       fill: darkseagreen; }
			#Shimane{       fill: darkseagreen; }
			#Okayama{       fill: darkseagreen; }
			#Hiroshima{     fill: darkseagreen; }
			#Yamaguchi{     fill: darkseagreen; }
			#Tokushima{     fill: darkseagreen; }
			#Kagawa{        fill: darkseagreen; }
			#Ehime{         fill: darkseagreen; }
			#Kochi{         fill: darkseagreen; }
			#Fukuoka{       fill: darkseagreen; }
			#Saga{          fill: darkseagreen; }
			#Nagasaki{      fill: darkseagreen; }
			#Kumamoto{      fill: darkseagreen; }
			#Oita{          fill: darkseagreen; }
			#Miyazaki{      fill: darkseagreen; }
			#Kagoshima{     fill: darkseagreen; }
			#Okinawa{       fill: darkseagreen; }
		]]></style>
	</defs>
	<rect id="BG" fill="lightskyblue" x="0" y="0" width="1400" height="1600"/>
	<path id="AREA" fill="none" stroke="gray" stroke-width="5px" d="M 0 615 H 615 V 0"/>
	<g stroke="black" stroke-width="3px">
		<!-- 北方領土 -->
		<g id="Hopporyodo" fill="white">
			<path d="M1270 196 l 8 0 4 -8 12 -7 2 -9 13 -14 3 -11 11 1 9 -8 16 -17 16 -11 7 0 5 -3 -1 -14 -4 1 -13 10 -11 11 -15 3 -8 -9 0 12 -11 11 -1 2 -8 3 -5 12 -6 4 -2 8 -8 3 3 10 -9 4 0 3 -4 1 1 4 -3 2 1 8 Z"/>
			<path d="M1194 258 l 6 5 3 0 0 -11 3 -5 7 -4 5 -9 2 -6 8 -6 2 -7 9 -3 7 -5 7 -4 2 -6 -9 3 -16 -5 -11 19 0 4 -5 3 -2 10 -6 5 -1 3 -11 13 Z"/>
			<path d="M1263 254 l 4 3 13 -9 -5 -5 -7 2 -5 5 Z"/>
			<path d="M1236 278 l 4 0 0 -5 -4 0 Z"/>
		</g>
		<!-- 北海道 -->
		<g id="Hokkaido" fill="white">
			<path d="M 892 467 l 4 -1 0 -3 6 -5 6 -2 -1 -9 10 -8 4 -6 5 3 17 6 9 -8 -5 -7 -10 -3 -12 -14 -5 -1 -6 3 -9 -10 -4 -1 -4 -6 0 -3 3 -3 4 -12 4 -4 7 -1 6 1 5 4 7 8 4 7 5 0 4 -6 18 -12 24 -7 59 34 29 16 4 -12 0 -17 4 -12 5 -4 6 -11 28 -28 7 -5 11 1 3 2 15 -1 1 -8 3 -1 3 3 8 2 8 -9 2 -6 18 -5 4 -5 11 -9 0 -4 -5 -2 -8 10 -14 4 -2 -6 4 -1 -7 -17 5 2 0 -5 -9 -1 -5 -7 -1 -10 4 -20 7 -5 0 -15 -4 -1 -12 16 -7 8 -10 12 -13 1 -9 -3 -9 -12 -3 6 -5 -7 -16 4 -6 -4 0 -5 -13 -5 -24 -18 -17 -16 -13 -17 -16 -21 -14 -11 -12 -12 -3 0 0 5 -12 1 -3 5 1 10 -3 3 1 9 11 17 4 13 0 16 -2 13 -6 8 4 12 -1 8 -2 6 -2 8 -11 8 -2 5 1 10 6 19 -3 9 -12 10 -8 -1 -5 -5 -8 2 -10 -4 -5 -6 -10 -1 -5 3 1 7 9 15 0 6 -7 6 -2 3 -3 9 -6 -4 -6 7 -12 5 -2 6 1 14 -6 8 7 11 9 6 7 12 0 9 -7 19 3 13 Z"/>
			<path d="M 942 162 l 7 0 -1 -6 -4 -4 -6 3 0 3 Z"/>
			<path d="M 930 147 l 3 -4 0 -6 -5 1 2 9 Z"/>
			<path d="M 853 403 l -2 10 -3 5 -4 -5 2 -6 Z"/>
		</g>
		<!-- 青森県 -->
		<g id="Aomori" fill="white">
			<path d="M 880 546 l 0 -6 -4 -2 2 -8 6 -6 14 -4 3 -16 3 -3 0 -4 -3 -2 2 -13 9 3 6 -1 6 26 6 4 8 -5 0 -9 9 5 5 5 5 -3 -1 -9 5 -6 -1 -9 -6 -5 -7 6 -9 1 -8 4 0 -11 2 -10 6 -9 8 0 12 11 12 -2 -3 21 3 6 0 22 6 17 9 4 1 3 -5 2 -1 3 -16 4 -18 10 -4 -3 0 -13 -12 -2 -8 5 -18 -5 -6 3 -12 -1 Z"/>
		</g>
		<!-- 岩手県 -->
		<g id="Iwate" fill="white">
			<path d="M 936 662 l 23 10 3 5 9 -3 3 1 8 -16 4 -1 4 2 7 2 0 -5 5 -1 1 -5 2 -3 -1 -5 5 -3 -3 -2 3 -4 -2 -3 0 -5 6 -4 -3 -2 3 -9 0 -4 -3 -2 0 -9 -2 -6 -1 -6 0 -4 -2 -4 -1 -3 -5 -2 1 -6 -3 -3 0 -8 -11 -14 -4 3 -3 3 -17 4 -17 9 -3 -3 -6 4 0 8 -2 3 2 9 1 10 -3 9 0 9 -4 12 -6 4 2 9 8 9 0 4 -2 3 2 5 Z"/>
		</g>
		<!-- 宮城県 -->
		<g id="Miyagi" fill="white">
			<path d="M 908 744 l 12 2 2 3 11 1 4 8 9 -7 4 0 -1 -15 7 -12 0 -10 11 -3 2 -4 6 0 9 10 2 -2 0 -9 -4 0 3 -8 -3 -2 1 -5 -1 -9 4 -2 1 -6 1 -6 4 2 -2 -10 -7 -3 -9 18 -3 -2 -10 4 -3 -5 -23 -10 -4 1 -1 3 -8 4 0 3 5 9 -1 8 -4 -1 -2 4 0 3 3 2 0 6 1 5 -4 6 -2 7 0 6 -4 2 -1 5 -6 3 Z"/>
		</g>
		<!-- 秋田県 -->
		<g id="Akita" fill="white">
			<path d="M 880 546 l 14 -2 5 0 5 -2 18 4 7 -5 13 3 0 12 -6 4 0 8 -2 3 2 8 1 12 -3 7 0 10 -4 12 -6 4 2 9 8 9 1 4 -3 3 2 6 1 7 -5 1 -1 3 -7 4 -9 -8 -14 -4 -13 -7 -6 0 9 -20 1 -24 -4 -7 0 -8 -15 0 -3 -3 -1 -7 4 0 4 3 5 -4 0 -4 5 -7 0 -9 2 -5 Z"/>
		</g>
		<!-- 山形県 -->
		<g id="Yamagata" fill="white">
			<path d="M 879 650 l 7 1 13 7 14 4 8 7 1 4 5 8 -2 9 -3 -1 -2 4 0 3 3 2 1 11 -7 12 1 7 -4 2 -2 5 -6 3 0 4 2 3 -4 3 2 11 -4 2 -29 -5 -7 -5 5 -15 -3 -2 4 -7 4 0 5 -5 0 -4 -7 -6 -4 0 -1 -9 -7 -6 10 -13 8 -26 Z"/>
		</g>
		<!-- 福島県 -->
		<g id="Fukushima" fill="white">
			<path d="M 874 756 l 28 5 4 -2 -2 -11 4 -4 12 2 2 3 11 1 4 8 9 -7 4 0 6 15 0 14 1 16 2 7 -2 4 -2 4 0 11 -10 12 -11 -3 -3 -3 -10 9 -7 -6 -4 0 -4 -11 -9 -7 -5 -1 -10 0 -17 10 -4 3 -10 5 -4 0 -3 -2 2 -3 0 -8 -5 -9 -2 -4 1 -3 1 -4 -2 -3 1 -5 17 -7 6 -3 -2 -3 0 -4 5 -2 3 -8 Z"/>
		</g>
		<!-- 茨城県 -->
		<g id="Ibaraki" fill="white">
			<path d="M 888 908 l 4 4 12 1 2 4 11 0 6 -5 9 0 4 2 8 8 5 0 -15 -26 -1 -4 -3 -3 1 -11 4 -4 0 -3 -2 -4 3 -6 6 -18 3 -9 -12 -3 -2 -3 -10 9 -7 -6 -4 0 -2 4 0 12 -1 3 2 13 -6 9 -3 0 -19 10 -4 0 -10 1 3 3 3 2 1 9 10 5 Z"/>
		</g>
		<!-- 栃木県 -->
		<g id="Tochigi" fill="white">
			<path d="M 846 829 l 5 0 11 -4 4 -4 16 -10 10 1 5 1 9 7 4 10 -2 5 1 12 -1 16 -6 8 -3 1 -19 10 -13 0 -9 -1 -4 -9 0 -7 3 -10 -7 0 1 -4 0 -3 -2 -11 Z"/>
		</g>
		<!-- 群馬県 -->
		<g id="Gumma" fill="white">
			<path d="M 846 829 l -3 -2 -8 -2 -5 0 -4 9 -5 6 -4 0 -2 2 -3 8 -5 1 -5 -1 -10 9 0 12 6 0 7 3 -2 9 1 11 1 7 2 5 5 2 7 -8 9 -3 4 -3 1 -6 6 -3 7 0 8 4 11 1 5 0 0 -4 -3 -4 -9 -1 -4 -10 0 -7 2 -9 -6 0 1 -6 -2 -12 -3 -8 Z"/>
		</g>
		<!-- 埼玉県 -->
		<g id="Saitama" fill="white">
			<path d="M 811 907 l 7 -7 9 -3 5 -4 0 -6 6 -3 8 1 8 4 15 1 1 -4 3 2 1 9 9 5 4 6 1 14 -11 0 -7 2 -9 0 -11 -1 -18 -6 -4 2 -11 -1 -4 -4 Z"/>
		</g>
		<!-- 千葉県 -->
		<g id="Chiba" fill="white">
			<path d="M 889 935 l -1 -13 -1 -14 4 4 13 1 1 4 12 -1 6 -4 9 0 3 1 9 9 4 0 3 6 -11 1 -11 8 -3 12 -1 14 -4 8 -3 5 -15 3 -8 8 -1 3 -4 3 -4 1 0 -8 2 -8 -2 -7 2 -6 -3 -1 0 -4 18 -21 0 -3 -6 -5 Z"/>
		</g>
		<!-- 東京都 -->
		<g id="Tokyo" fill="white">
			<path d="M 828 918 l 4 -2 18 6 10 2 10 0 6 -2 11 0 2 13 -11 1 -8 2 -15 0 -14 -2 -1 -3 -3 -3 -8 -7 Z"/>
			<path d="M 857 1011 l 7 0 0 -3 -7 -5 Z"/>
			<path d="M 848 1020 l 0 4 1 -4 Z"/>
			<path d="M 853 1026 l 3 -2 -4 2 Z"/>
		</g>
		<!-- 神奈川県 -->
		<g id="Kanagawa" fill="white">
			<path d="M 840 935 l 16 3 14 0 7 -3 12 0 -5 2 -3 3 0 5 -6 5 -1 11 6 3 -1 6 -6 4 0 -7 -3 -5 -14 -2 -6 4 -5 2 0 5 -4 5 -11 -5 1 -4 0 -9 -4 -3 0 -4 7 -4 5 -3 1 -3 Z"/>
		</g>
		<!-- 新潟県 -->
		<g id="Nigata" fill="white">
			<path d="M 814 842 l 3 -2 4 0 5 -6 4 -9 5 0 9 2 2 -3 -1 -8 -6 -12 2 -7 -3 -3 2 -6 17 -6 6 -3 -3 -3 0 -4 6 -3 3 -8 5 -4 -8 -6 5 -15 -3 -2 4 -7 3 0 5 -5 0 -4 -6 -6 -4 0 -1 -10 -7 -5 -2 5 -7 14 0 19 -32 23 -5 5 -4 17 -10 9 -4 9 -16 14 -8 0 -13 8 -7 6 -9 4 3 11 6 -5 2 -4 8 0 4 7 14 -4 5 -6 5 -5 6 0 7 9 Z"/>
			<path d="M 778 761 l 10 -1 10 -10 1 -10 -6 2 0 -9 2 -5 -1 -8 -12 12 -3 12 6 4 0 4 Z"/>
		</g>
		<!-- 富山県 -->
		<g id="Toyama" fill="white">
			<path d="M 744 829 l 3 12 1 4 0 8 -7 12 0 4 -3 6 -16 -4 -15 1 -5 6 -5 7 -3 -5 -7 0 -1 -10 2 -4 1 -22 3 -7 4 -3 1 -4 7 0 0 12 3 5 13 1 4 -2 6 -12 6 -5 Z"/>
		</g>
		<!-- 石川県 -->
		<g id="Ishikawa" fill="white">
			<path d="M 704 830 l -7 0 -1 4 -4 3 -3 7 -1 23 -2 3 1 10 -1 6 1 5 -3 2 -1 6 -7 3 -2 -6 -5 -2 -9 0 -5 -5 -4 -2 15 -12 12 -22 5 -5 4 -14 -3 -4 1 -10 -4 -8 2 -5 1 -7 10 -5 6 0 20 -11 4 6 -6 6 -1 6 -5 3 -3 -1 -7 8 -6 -2 -2 8 5 5 4 -1 Z"/>
		</g>
		<!-- 福井県 -->
		<g id="Fukui" fill="white">
			<path d="M 651 887 l 4 2 4 5 9 0 5 2 3 7 10 16 -1 7 -14 2 -12 0 -7 8 -3 1 -2 3 -4 3 -17 7 -2 10 -3 2 -4 -3 -14 -3 -2 -5 -2 -9 4 1 3 1 1 4 4 0 0 -2 3 0 0 4 5 -1 0 -5 3 1 3 -2 0 -4 5 -1 5 -3 0 -5 4 0 4 4 -1 -10 -7 -15 0 -4 10 -15 Z"/>
		</g>
		<!-- 山梨県 -->
		<g id="Yamanashi" fill="white">
			<path d="M 812 914 l 4 4 12 0 1 5 11 9 0 4 0 5 -1 3 -13 7 0 3 -5 0 -7 2 -7 0 -4 -3 -5 0 0 16 -4 4 -5 -6 -1 -5 -6 0 0 -8 -1 -6 0 -8 -3 -3 0 -7 0 -9 11 -9 4 2 9 2 Z"/>
		</g>
		<!-- 長野県 -->
		<g id="Nagano" fill="white">
			<path d="M 747 840 l 7 -4 1 -4 9 0 3 7 15 -4 10 -11 6 0 7 10 9 8 -2 8 -6 1 -4 -1 -11 10 1 10 5 0 8 4 -2 10 1 17 3 5 4 2 1 5 -10 3 -9 -2 -4 -2 -11 9 0 9 0 7 -3 1 -3 11 -1 9 -6 6 -13 6 -17 -2 3 -12 3 -4 -1 -6 -4 -3 0 -4 -5 -8 -7 -8 -1 -4 8 -5 5 -6 2 -5 -2 -11 4 -8 -1 -5 -1 -5 3 -5 0 -4 7 -12 Z"/>
		</g>
		<!-- 岐阜県 -->
		<g id="Gifu" fill="white">
			<path d="M 652 936 l 7 -7 11 -1 14 -2 2 -8 -11 -16 8 -4 0 -5 4 -2 -1 -5 0 -6 8 0 3 5 5 -8 4 -5 16 -1 16 4 2 9 -5 9 2 10 -1 5 -6 7 -7 4 1 3 7 9 5 7 0 5 4 4 1 5 -3 4 -3 12 -12 0 -14 -4 -11 -6 -14 2 -7 10 0 4 -3 0 -4 -4 -6 -1 -2 -15 Z"/>
		</g>
		<!-- 静岡県 -->
		<g id="Shizuoka" fill="white">
			<path d="M 752 970 l 12 -7 7 -5 1 -9 4 -11 2 -1 2 3 1 8 1 7 0 7 5 0 1 5 6 6 4 -4 0 -16 5 0 4 3 7 0 6 -2 6 0 4 4 0 9 0 3 10 6 -1 12 3 6 -10 16 0 6 -5 0 -3 4 -3 0 -2 -10 -1 -24 6 -1 -7 -8 -10 1 -6 6 -1 7 -10 4 -4 13 -4 3 -2 9 -10 -4 -10 1 -5 3 -12 -4 -11 0 0 -13 8 -6 13 -20 Z"/>
		</g>
		<!-- 愛知県 -->
		<g id="Aichi" fill="white">
			<path d="M 675 974 l 2 -1 0 -3 7 -10 14 -2 11 6 14 4 12 0 17 2 1 8 -13 20 -8 5 0 13 -8 0 -14 6 -5 0 0 -3 15 -9 -1 -4 -15 1 -3 -2 -1 -6 -3 7 2 7 -7 -3 0 -6 -3 -5 0 -5 6 -7 -4 -3 -8 3 Z"/>
		</g>
		<!-- 三重県 -->
		<g id="Mie" fill="white">
			<path d="M 664 968 l 6 2 3 4 3 0 6 12 -3 5 -2 12 -6 5 -1 10 10 8 8 5 8 5 -1 11 -7 2 2 -4 -10 0 -16 8 -6 0 -2 2 0 5 -5 2 1 11 -11 8 -5 14 -11 -9 1 -7 6 -4 0 -6 8 -6 0 -13 1 -6 -3 -3 0 -6 9 -1 3 -2 -3 -7 -5 -1 -4 -5 0 -7 -3 -2 2 -5 5 -6 9 0 5 -4 3 -6 3 -2 0 -10 Z"/>
		</g>
		<!-- 滋賀県 -->
		<g id="Shiga" fill="white">
			<path d="M 621 962 l 3 -2 1 -10 18 -7 4 -3 2 -3 3 0 10 18 2 14 -2 8 0 11 -3 1 -3 6 -5 4 -9 0 -6 7 -7 -7 -6 -15 Z"/>
		</g>
		<!-- 京都府 -->
		<g id="Kyoto" fill="white">
			<path d="M 598 942 l 5 14 14 3 4 3 2 23 6 14 7 7 -1 3 -13 2 -4 -3 -1 -6 -1 -9 -6 -1 0 -4 -6 -5 -17 -7 -8 -11 -8 -1 -5 -4 0 -3 5 0 1 -3 0 -8 -8 -4 -2 -6 8 -1 6 -6 13 0 -4 14 5 2 2 5 4 -1 Z"/>
		</g>
		<!-- 大阪府 -->
		<g id="Osaka" fill="white">
			<path d="M 610 992 l 6 1 1 15 5 3 -11 13 -1 13 -25 7 -10 0 12 -6 9 -8 4 -11 -4 -9 2 -13 -6 -6 0 -4 4 0 7 7 Z"/>
		</g>
		<!-- 兵庫県 -->
		<g id="Hyogo" fill="white">
			<path d="M 562 935 l 2 8 8 3 0 8 -2 3 -4 0 0 3 5 4 8 1 8 11 17 7 6 5 0 4 -7 2 -8 -7 -3 0 0 4 6 6 -2 13 -9 2 -7 6 -7 0 -26 -14 -16 5 -9 1 1 -8 -4 -6 3 -16 8 -6 -1 -4 8 -6 1 -7 -4 -11 -6 -7 10 -3 Z"/>
			<path d="M 546 1044 l 7 -6 0 -5 14 -11 2 4 -5 5 1 17 -9 5 Z"/>
		</g>
		<!-- 奈良県 -->
		<g id="Nara" fill="white">
			<path d="M 610 1037 l 1 -14 11 -12 12 -2 4 3 0 7 4 5 5 1 3 7 -3 2 -9 1 0 6 3 4 -1 5 0 13 -9 5 0 7 -5 4 -20 0 -1 -12 0 -7 9 -9 -2 -7 0 -6 Z"/>
		</g>
		<!-- 和歌山県 -->
		<g id="Wakayama" fill="white">
			<path d="M 575 1044 l 11 0 24 -7 2 1 0 6 1 7 -9 10 1 6 1 12 19 0 0 7 10 9 -3 8 -12 11 -5 1 -10 -6 -9 -4 -4 -11 -4 -7 -12 -8 -1 -8 3 -2 -1 -4 -3 -2 1 -5 Z"/>
		</g>
		<!-- 鳥取県 -->
		<g id="Tottori" fill="white">
			<path d="M 527 939 l 7 7 4 11 -1 8 -8 5 -5 0 -7 1 -7 -8 -7 -2 -5 3 -10 0 -3 -4 -5 0 -23 22 -8 -5 1 -11 8 -5 0 -14 8 1 10 -5 19 3 Z"/>
		</g>
		<!-- 島根県 -->
		<g id="Shimane" fill="white">
			<path d="M 458 947 l 0 14 -8 5 -1 11 -18 -2 -8 3 -2 3 0 3 -5 7 -8 5 -10 1 -6 2 -4 -1 -7 5 -5 15 -2 8 -2 9 -6 0 -11 4 2 -9 0 -6 -3 -5 -5 -5 0 -7 9 -1 30 -26 9 -5 7 -10 11 -5 5 -5 -3 -7 28 -10 11 2 Z"/>
		</g>
		<!-- 岡山県 -->
		<g id="Okayama" fill="white">
			<path d="M 456 982 l 23 -22 6 0 3 3 10 1 4 -3 7 2 7 8 8 -2 5 1 0 4 -8 5 -2 17 4 7 -1 7 -7 4 -3 5 -11 0 -2 2 8 0 -9 9 -6 0 -9 -5 -12 4 -1 -3 -3 0 -4 -6 Z"/>
		</g>
		<!-- 広島県 -->
		<g id="Hiroshima" fill="white">
			<path d="M 372 1035 l 3 -10 1 -8 4 -14 8 -5 4 1 6 -3 10 0 8 -5 5 -7 0 -4 10 -5 18 2 8 5 6 39 4 5 -8 12 -4 -5 -5 4 0 5 -9 1 5 -7 -3 -2 -6 4 -10 0 -11 8 -9 1 -2 -7 -4 -5 -7 1 -8 10 -9 -9 Z"/>
			<path d="M 435 1049 l 5 0 0 -3 -1 -4 Z"/>
			<path d="M 402 1055 l 6 3 -1 -4 0 -5 -3 0 Z"/>
		</g>
		<!-- 山口県 -->
		<g id="Yamaguchi" fill="white">
			<path d="M 349 1007 l -1 7 6 5 3 6 0 5 -3 8 12 -3 6 0 6 2 8 9 -2 4 0 5 1 7 -6 5 -1 10 -4 3 0 -10 -10 -3 -4 -4 -5 2 0 -8 -13 5 -2 -2 -6 0 -2 2 -2 -5 -6 8 -8 -1 -6 -10 -10 8 -5 -15 4 -2 -1 -5 -2 -5 10 -10 5 -1 5 4 2 -3 4 3 7 -1 6 -5 2 -4 9 -10 Z"/>
			<path d="M 384 1068 l -1 4 3 2 12 -2 2 -4 -11 0 Z"/>
		</g>
		<!-- 徳島県 -->
		<g id="Tokushima" fill="white">
			<path d="M 478 1060 l 10 0 4 -2 11 1 9 -5 6 0 4 -2 9 0 3 -2 7 -1 4 4 -1 3 -3 4 0 8 6 5 0 11 -10 8 -10 4 -5 10 -10 -4 -4 -8 -4 -1 -1 -7 -4 -4 -8 2 -3 -3 -5 0 -5 -5 Z"/>
		</g>
		<!-- 香川県 -->
		<g id="Kagawa" fill="white">
			<path d="M 478 1060 l 10 0 4 -3 11 1 9 -4 6 0 3 -3 10 1 2 -2 -10 -5 -4 -5 -4 0 -2 -3 -5 -1 -13 3 -1 3 -6 4 -11 0 0 5 2 3 Z"/>
			<path d="M 517 1030 l 5 -1 1 -3 -1 -3 -4 0 Z"/>
		</g>
		<!-- 愛媛県 -->
		<g id="Ehime" fill="white">
			<path d="M 478 1060 l 0 16 -10 4 -16 1 -11 7 -4 7 -3 10 -3 3 -8 1 2 4 -1 3 -1 6 -11 12 -13 1 -5 -5 9 -3 0 -4 -3 -3 -7 0 0 -9 -3 -3 -14 7 -6 2 8 -9 11 -3 5 -6 14 -6 7 -7 6 -19 9 -6 3 -4 4 3 5 10 10 0 12 -3 8 -1 Z"/>
		</g>
		<!-- 高知県 -->
		<g id="Kochi" fill="white">
			<path d="M 399 1135 l 14 -2 10 -11 2 -9 -2 -4 8 0 4 -5 2 -10 4 -5 11 -9 16 0 10 -4 5 5 6 0 2 3 8 -2 5 5 0 6 4 1 4 8 10 3 -6 10 -4 14 -13 -16 -7 -6 -5 -2 -12 1 -10 9 -12 4 -1 9 -11 13 0 4 -7 -1 -1 8 -3 3 0 8 4 7 -6 -6 -5 0 -5 3 -9 -5 0 -4 3 -2 -1 -6 -13 0 -1 -6 Z"/>
		</g>
		<!-- 福岡県 -->
		<g id="Fukuoka" fill="white">
			<path d="M 243 1096 l 1 -7 5 -4 5 1 4 3 4 -1 -2 -7 5 -2 2 -3 1 -7 10 -3 3 -3 15 3 5 -1 6 23 6 2 0 4 -5 3 -12 1 -4 4 -5 8 0 8 2 7 -2 5 -3 0 -3 -4 -6 0 -10 6 -6 4 0 -6 -5 -6 5 -8 5 -2 2 -4 -4 -3 -1 -3 -5 -6 Z"/>
		</g>
		<!-- 佐賀県 -->
		<g id="Saga" fill="white">
			<path d="M 243 1096 l 13 2 7 10 3 1 -2 5 -5 1 -5 9 -4 -2 -4 0 -4 4 3 9 0 5 -9 -3 -2 -3 -5 -2 -7 -14 -3 1 -2 -4 0 -7 5 0 3 -3 -4 -6 3 -2 2 -3 5 -1 3 5 Z"/>
		</g>
		<!-- 長崎県 -->
		<g id="Nagasaki" fill="white">
			<path d="M 222 1108 l -4 0 -1 8 2 3 3 -1 7 14 5 2 1 2 11 4 -5 8 8 0 5 2 0 9 -2 5 -10 2 -3 0 0 -4 2 -8 -5 -2 -7 2 -13 14 -2 -2 2 -14 -10 -12 2 -6 4 -5 6 7 0 9 9 1 1 -5 -3 -6 -6 -7 -4 0 -4 -9 -7 -2 2 -13 12 2 Z"/>
			<path d="M 202 1102 l 3 2 -6 11 -5 0 0 -4 Z"/>
			<path d="M 165 1134 l 7 -7 2 5 -3 5 -5 7 1 -6 Z"/>
			<path d="M 140 1147 l 11 0 4 8 -7 1 -4 2 -8 0 Z"/>
			<path d="M 216 1066 l 0 10 5 -2 0 -9 -3 -1 Z"/>
			<path d="M 187 1027 l 6 0 3 3 -5 10 -4 4 -4 -3 Z"/>
			<path d="M 191 1021 l 6 0 0 4 2 -11 6 -4 2 -4 -1 -8 -3 -2 -7 3 0 8 Z"/>
		</g>
		<!-- 熊本県 -->
		<g id="Kumamoto" fill="white">
			<path d="M 259 1136 l 7 -5 9 -5 6 1 2 2 5 1 2 4 7 -2 -1 -5 4 -2 6 1 4 7 3 2 0 7 1 13 -11 11 -4 3 -1 9 1 9 1 9 -2 9 -7 1 -3 3 -14 0 -5 -6 -23 2 20 -22 0 -5 7 -10 -11 -3 6 -6 6 0 -1 -4 -9 -8 -4 -4 Z"/>
			<path d="M 245 1177 l 13 -3 0 4 -3 3 0 4 -9 -2 Z"/>
			<path d="M 231 1172 l 6 -1 4 2 1 15 -11 9 -4 0 0 -4 4 -2 -3 -4 0 -7 Z"/>
		</g>
		<!-- 大分県 -->
		<g id="Oita" fill="white">
			<path d="M 288 1129 l 1 -4 -2 -6 1 -9 4 -9 5 -3 12 -1 4 -4 0 -3 6 4 12 0 7 -7 5 0 7 9 0 8 -3 4 -8 5 -5 0 1 5 23 5 -2 11 9 4 -6 6 7 5 -3 4 0 5 -5 0 -3 6 -3 -8 -9 1 -12 2 -2 -5 -15 -2 -1 -17 -3 -2 -4 -7 -6 -1 -4 2 1 5 -7 2 Z"/>
		</g>
		<!-- 宮崎県 -->
		<g id="Miyazaki" fill="white">
			<path d="M 274 1209 l 14 0 4 -3 6 -1 2 -9 0 -10 -1 -9 0 -8 15 -13 0 -4 15 3 2 4 21 -3 3 8 -12 12 2 6 -5 4 -10 22 0 10 -8 14 4 5 -9 25 -5 6 -8 -5 -3 0 0 -6 1 -7 -9 -3 -3 -3 1 -6 -6 -4 -1 -5 Z"/>
		</g>
		<!-- 鹿児島県 -->
		<g id="Kagoshima" fill="white">
			<path d="M 246 1205 l 23 -2 4 6 11 19 0 6 6 3 0 7 2 3 10 3 -2 8 0 5 -4 0 -4 5 6 10 -10 5 -1 5 -17 8 -2 -4 6 -8 3 -10 -1 -9 -6 -4 -3 -8 0 -5 8 3 4 -4 0 -5 -7 -2 -4 1 -6 7 -5 12 3 7 5 11 0 4 -4 3 -9 -8 -13 -2 -5 -8 0 -4 8 -3 3 -4 1 -6 -1 -10 -7 -5 1 -25 2 -5 Z"/>
			<path d="M 278 1348 l 7 -2 2 -11 3 -3 3 -12 1 -6 -4 0 -7 11 0 8 -5 7 Z"/>
			<path d="M 243 1346 l 9 -6 10 6 0 6 -5 6 -9 0 Z"/>
			<path d="M 148 1514 l 9 7 9 -2 0 -5 19 -13 0 -4 -32 9 0 5 Z"/>
			<path d="M 147 1524 l 11 3 -10 -8 Z"/>
			<path d="M 202 1513 l 3 2 2 -5 Z"/>
		</g>
		<!-- 沖縄県 -->
		<g id="Okinawa" fill="white">
			<path d="M 439 378 l 7 -5 -1 -5 2 -9 6 -1 -3 -4 1 -4 9 -5 3 -4 8 -2 -1 -5 6 -2 6 -6 1 -5 -1 -5 -4 -2 -10 11 -1 6 -17 -2 0 3 7 7 -16 10 -1 13 -5 4 0 8 Z"/>
			<path d="M 367 354 l 6 1 -1 6 Z"/>
			<path d="M 260 477 l 0 6 0 8 13 -4 -9 -3 -1 -4 Z"/>
			<path d="M 173 510 l 2 10 9 -2 -1 -7 6 -7 1 -6 -4 0 1 4 -7 8 Z"/>
			<path d="M 141 520 l 6 0 1 -8 11 2 2 2 0 3 -6 6 -14 -1 Z"/>
		</g>
	</g>
</svg>